<svg xmlns="http://www.w3.org/2000/svg" xmlns:xlink="http://www.w3.org/1999/xlink" width="375" zoomAndPan="magnify" viewBox="0 0 375 374.999991" height="374.999991" preserveAspectRatio="xMidYMid meet" version="1.0"><defs><clipPath id="id1"><path d="M 6.5625 6.5625 L 368.8125 6.5625 L 368.8125 368.8125 L 6.5625 368.8125 Z M 6.5625 6.5625 " clip-rule="nonzero"/></clipPath><clipPath id="id2"><path d="M 6.5625 97 L 368.8125 97 L 368.8125 188 L 6.5625 188 Z M 6.5625 97 " clip-rule="nonzero"/></clipPath></defs><g clip-path="url(#id1)"><path fill="rgb(100%, 94.509888%, 62.748718%)" d="M 368.8125 187.6875 C 368.8125 190.652344 368.738281 193.613281 368.59375 196.574219 C 368.449219 199.535156 368.230469 202.492188 367.941406 205.441406 C 367.648438 208.390625 367.285156 211.332031 366.851562 214.265625 C 366.417969 217.195312 365.910156 220.117188 365.332031 223.023438 C 364.753906 225.929688 364.105469 228.820312 363.382812 231.695312 C 362.664062 234.574219 361.875 237.429688 361.011719 240.265625 C 360.152344 243.101562 359.222656 245.914062 358.222656 248.707031 C 357.226562 251.496094 356.160156 254.261719 355.023438 257 C 353.890625 259.738281 352.691406 262.449219 351.421875 265.128906 C 350.15625 267.808594 348.824219 270.453125 347.425781 273.070312 C 346.027344 275.683594 344.566406 278.261719 343.042969 280.804688 C 341.519531 283.347656 339.933594 285.851562 338.289062 288.316406 C 336.640625 290.78125 334.933594 293.203125 333.167969 295.582031 C 331.402344 297.964844 329.578125 300.300781 327.699219 302.59375 C 325.820312 304.882812 323.882812 307.128906 321.890625 309.324219 C 319.902344 311.519531 317.859375 313.667969 315.761719 315.761719 C 313.667969 317.859375 311.519531 319.902344 309.324219 321.890625 C 307.128906 323.882812 304.882812 325.820312 302.59375 327.699219 C 300.300781 329.578125 297.964844 331.402344 295.582031 333.167969 C 293.203125 334.933594 290.78125 336.640625 288.316406 338.289062 C 285.851562 339.933594 283.347656 341.519531 280.804688 343.042969 C 278.261719 344.566406 275.683594 346.027344 273.070312 347.425781 C 270.453125 348.824219 267.808594 350.15625 265.128906 351.421875 C 262.449219 352.691406 259.738281 353.890625 257 355.023438 C 254.261719 356.160156 251.496094 357.226562 248.707031 358.222656 C 245.914062 359.222656 243.101562 360.152344 240.265625 361.011719 C 237.429688 361.875 234.574219 362.664062 231.695312 363.382812 C 228.820312 364.105469 225.929688 364.753906 223.023438 365.332031 C 220.117188 365.910156 217.195312 366.417969 214.265625 366.851562 C 211.332031 367.285156 208.390625 367.648438 205.441406 367.941406 C 202.492188 368.230469 199.535156 368.449219 196.574219 368.59375 C 193.613281 368.738281 190.652344 368.8125 187.6875 368.8125 C 184.722656 368.8125 181.761719 368.738281 178.800781 368.59375 C 175.839844 368.449219 172.882812 368.230469 169.933594 367.941406 C 166.984375 367.648438 164.042969 367.285156 161.109375 366.851562 C 158.179688 366.417969 155.257812 365.910156 152.351562 365.332031 C 149.445312 364.753906 146.554688 364.105469 143.675781 363.382812 C 140.800781 362.664062 137.945312 361.875 135.109375 361.011719 C 132.273438 360.152344 129.460938 359.222656 126.667969 358.222656 C 123.878906 357.226562 121.113281 356.160156 118.375 355.023438 C 115.636719 353.890625 112.925781 352.691406 110.246094 351.421875 C 107.566406 350.15625 104.921875 348.824219 102.304688 347.425781 C 99.691406 346.027344 97.113281 344.566406 94.570312 343.042969 C 92.027344 341.519531 89.523438 339.933594 87.058594 338.289062 C 84.59375 336.640625 82.171875 334.933594 79.792969 333.167969 C 77.410156 331.402344 75.074219 329.578125 72.78125 327.699219 C 70.492188 325.820312 68.246094 323.882812 66.050781 321.890625 C 63.855469 319.902344 61.707031 317.859375 59.613281 315.761719 C 57.515625 313.667969 55.472656 311.519531 53.484375 309.324219 C 51.492188 307.128906 49.554688 304.882812 47.675781 302.59375 C 45.796875 300.300781 43.972656 297.964844 42.207031 295.582031 C 40.441406 293.203125 38.734375 290.78125 37.085938 288.316406 C 35.441406 285.851562 33.855469 283.347656 32.332031 280.804688 C 30.808594 278.261719 29.347656 275.683594 27.949219 273.070312 C 26.550781 270.453125 25.21875 267.808594 23.953125 265.128906 C 22.683594 262.449219 21.484375 259.738281 20.351562 257 C 19.214844 254.261719 18.148438 251.496094 17.148438 248.707031 C 16.152344 245.914062 15.222656 243.101562 14.363281 240.265625 C 13.5 237.429688 12.710938 234.574219 11.992188 231.695312 C 11.269531 228.820312 10.621094 225.929688 10.042969 223.023438 C 9.464844 220.117188 8.957031 217.195312 8.523438 214.265625 C 8.089844 211.332031 7.726562 208.390625 7.433594 205.441406 C 7.144531 202.492188 6.925781 199.535156 6.78125 196.574219 C 6.636719 193.613281 6.5625 190.652344 6.5625 187.6875 C 6.5625 184.722656 6.636719 181.761719 6.78125 178.800781 C 6.925781 175.839844 7.144531 172.882812 7.433594 169.933594 C 7.726562 166.984375 8.089844 164.042969 8.523438 161.109375 C 8.957031 158.179688 9.464844 155.257812 10.042969 152.351562 C 10.621094 149.445312 11.269531 146.554688 11.992188 143.675781 C 12.710938 140.800781 13.5 137.945312 14.363281 135.109375 C 15.222656 132.273438 16.152344 129.460938 17.148438 126.667969 C 18.148438 123.878906 19.214844 121.113281 20.351562 118.375 C 21.484375 115.636719 22.683594 112.925781 23.953125 110.246094 C 25.21875 107.566406 26.550781 104.921875 27.949219 102.304688 C 29.347656 99.691406 30.808594 97.113281 32.332031 94.570312 C 33.855469 92.027344 35.441406 89.523438 37.085938 87.058594 C 38.734375 84.59375 40.441406 82.171875 42.207031 79.792969 C 43.972656 77.410156 45.796875 75.074219 47.675781 72.78125 C 49.554688 70.492188 51.492188 68.246094 53.484375 66.050781 C 55.472656 63.855469 57.515625 61.707031 59.613281 59.613281 C 61.707031 57.515625 63.855469 55.472656 66.050781 53.484375 C 68.246094 51.492188 70.492188 49.554688 72.78125 47.675781 C 75.074219 45.796875 77.410156 43.972656 79.792969 42.207031 C 82.171875 40.441406 84.59375 38.734375 87.058594 37.085938 C 89.523438 35.441406 92.027344 33.855469 94.570312 32.332031 C 97.113281 30.808594 99.691406 29.347656 102.304688 27.949219 C 104.921875 26.550781 107.566406 25.21875 110.246094 23.953125 C 112.925781 22.683594 115.636719 21.484375 118.375 20.351562 C 121.113281 19.214844 123.878906 18.148438 126.667969 17.148438 C 129.460938 16.152344 132.273438 15.222656 135.109375 14.363281 C 137.945312 13.5 140.800781 12.710938 143.675781 11.992188 C 146.554688 11.269531 149.445312 10.621094 152.351562 10.042969 C 155.257812 9.464844 158.179688 8.957031 161.109375 8.523438 C 164.042969 8.089844 166.984375 7.726562 169.933594 7.433594 C 172.882812 7.144531 175.839844 6.925781 178.800781 6.78125 C 181.761719 6.636719 184.722656 6.5625 187.6875 6.5625 C 190.652344 6.5625 193.613281 6.636719 196.574219 6.78125 C 199.535156 6.925781 202.492188 7.144531 205.441406 7.433594 C 208.390625 7.726562 211.332031 8.089844 214.265625 8.523438 C 217.195312 8.957031 220.117188 9.464844 223.023438 10.042969 C 225.929688 10.621094 228.820312 11.269531 231.695312 11.992188 C 234.574219 12.710938 237.429688 13.5 240.265625 14.363281 C 243.101562 15.222656 245.914062 16.152344 248.707031 17.148438 C 251.496094 18.148438 254.261719 19.214844 257 20.351562 C 259.738281 21.484375 262.449219 22.683594 265.128906 23.953125 C 267.808594 25.21875 270.453125 26.550781 273.070312 27.949219 C 275.683594 29.347656 278.261719 30.808594 280.804688 32.332031 C 283.347656 33.855469 285.851562 35.441406 288.316406 37.085938 C 290.78125 38.734375 293.203125 40.441406 295.582031 42.207031 C 297.964844 43.972656 300.300781 45.796875 302.59375 47.675781 C 304.882812 49.554688 307.128906 51.492188 309.324219 53.484375 C 311.519531 55.472656 313.667969 57.515625 315.761719 59.613281 C 317.859375 61.707031 319.902344 63.855469 321.890625 66.050781 C 323.882812 68.246094 325.820312 70.492188 327.699219 72.78125 C 329.578125 75.074219 331.402344 77.410156 333.167969 79.792969 C 334.933594 82.171875 336.640625 84.59375 338.289062 87.058594 C 339.933594 89.523438 341.519531 92.027344 343.042969 94.570312 C 344.566406 97.113281 346.027344 99.691406 347.425781 102.304688 C 348.824219 104.921875 350.15625 107.566406 351.421875 110.246094 C 352.691406 112.925781 353.890625 115.636719 355.023438 118.375 C 356.160156 121.113281 357.226562 123.878906 358.222656 126.667969 C 359.222656 129.460938 360.152344 132.273438 361.011719 135.109375 C 361.875 137.945312 362.664062 140.800781 363.382812 143.675781 C 364.105469 146.554688 364.753906 149.445312 365.332031 152.351562 C 365.910156 155.257812 366.417969 158.179688 366.851562 161.109375 C 367.285156 164.042969 367.648438 166.984375 367.941406 169.933594 C 368.230469 172.882812 368.449219 175.839844 368.59375 178.800781 C 368.738281 181.761719 368.8125 184.722656 368.8125 187.6875 Z M 368.8125 187.6875 " fill-opacity="1" fill-rule="nonzero"/></g><g clip-path="url(#id2)"><path fill="rgb(14.509583%, 14.118958%, 13.328552%)" d="M 31.058594 97.125 C 15.574219 123.796875 6.5625 154.675781 6.5625 187.6875 L 368.8125 187.6875 C 368.8125 154.675781 359.800781 123.796875 344.316406 97.125 Z M 31.058594 97.125 " fill-opacity="1" fill-rule="nonzero"/></g><path fill="rgb(100%, 98.81897%, 94.898987%)" d="M 142.40625 142.40625 C 142.40625 143.148438 142.371094 143.886719 142.296875 144.625 C 142.222656 145.363281 142.117188 146.097656 141.972656 146.824219 C 141.828125 147.550781 141.648438 148.269531 141.429688 148.976562 C 141.214844 149.6875 140.964844 150.386719 140.683594 151.070312 C 140.398438 151.753906 140.082031 152.425781 139.734375 153.078125 C 139.382812 153.734375 139.003906 154.367188 138.589844 154.984375 C 138.179688 155.601562 137.738281 156.195312 137.265625 156.769531 C 136.796875 157.34375 136.300781 157.890625 135.773438 158.414062 C 135.25 158.941406 134.703125 159.4375 134.128906 159.90625 C 133.554688 160.378906 132.960938 160.820312 132.34375 161.230469 C 131.726562 161.644531 131.09375 162.023438 130.4375 162.375 C 129.785156 162.722656 129.113281 163.039062 128.429688 163.324219 C 127.746094 163.605469 127.046875 163.855469 126.335938 164.070312 C 125.628906 164.289062 124.910156 164.46875 124.183594 164.613281 C 123.457031 164.757812 122.722656 164.863281 121.984375 164.9375 C 121.246094 165.011719 120.507812 165.046875 119.765625 165.046875 C 119.023438 165.046875 118.285156 165.011719 117.546875 164.9375 C 116.808594 164.863281 116.074219 164.757812 115.347656 164.613281 C 114.621094 164.46875 113.902344 164.289062 113.195312 164.070312 C 112.484375 163.855469 111.785156 163.605469 111.101562 163.324219 C 110.417969 163.039062 109.746094 162.722656 109.09375 162.375 C 108.4375 162.023438 107.804688 161.644531 107.1875 161.230469 C 106.570312 160.820312 105.976562 160.378906 105.402344 159.90625 C 104.828125 159.4375 104.28125 158.941406 103.757812 158.414062 C 103.230469 157.890625 102.734375 157.34375 102.265625 156.769531 C 101.792969 156.195312 101.351562 155.601562 100.941406 154.984375 C 100.527344 154.367188 100.148438 153.734375 99.796875 153.078125 C 99.449219 152.425781 99.132812 151.753906 98.847656 151.070312 C 98.566406 150.386719 98.316406 149.6875 98.101562 148.976562 C 97.882812 148.269531 97.703125 147.550781 97.558594 146.824219 C 97.414062 146.097656 97.308594 145.363281 97.234375 144.625 C 97.160156 143.886719 97.125 143.148438 97.125 142.40625 C 97.125 141.664062 97.160156 140.925781 97.234375 140.1875 C 97.308594 139.449219 97.414062 138.714844 97.558594 137.988281 C 97.703125 137.261719 97.882812 136.542969 98.101562 135.835938 C 98.316406 135.125 98.566406 134.425781 98.847656 133.742188 C 99.132812 133.058594 99.449219 132.386719 99.796875 131.734375 C 100.148438 131.078125 100.527344 130.445312 100.941406 129.828125 C 101.351562 129.210938 101.792969 128.617188 102.265625 128.042969 C 102.734375 127.46875 103.230469 126.921875 103.757812 126.398438 C 104.28125 125.871094 104.828125 125.375 105.402344 124.90625 C 105.976562 124.433594 106.570312 123.992188 107.1875 123.582031 C 107.804688 123.167969 108.4375 122.789062 109.09375 122.4375 C 109.746094 122.089844 110.417969 121.773438 111.101562 121.488281 C 111.785156 121.207031 112.484375 120.957031 113.195312 120.742188 C 113.902344 120.523438 114.621094 120.34375 115.347656 120.199219 C 116.074219 120.054688 116.808594 119.949219 117.546875 119.875 C 118.285156 119.800781 119.023438 119.765625 119.765625 119.765625 C 120.507812 119.765625 121.246094 119.800781 121.984375 119.875 C 122.722656 119.949219 123.457031 120.054688 124.183594 120.199219 C 124.910156 120.34375 125.628906 120.523438 126.335938 120.742188 C 127.046875 120.957031 127.746094 121.207031 128.429688 121.488281 C 129.113281 121.773438 129.785156 122.089844 130.4375 122.4375 C 131.09375 122.789062 131.726562 123.167969 132.34375 123.582031 C 132.960938 123.992188 133.554688 124.433594 134.128906 124.90625 C 134.703125 125.375 135.25 125.871094 135.773438 126.398438 C 136.300781 126.921875 136.796875 127.46875 137.265625 128.042969 C 137.738281 128.617188 138.179688 129.210938 138.589844 129.828125 C 139.003906 130.445312 139.382812 131.078125 139.734375 131.734375 C 140.082031 132.386719 140.398438 133.058594 140.683594 133.742188 C 140.964844 134.425781 141.214844 135.125 141.429688 135.835938 C 141.648438 136.542969 141.828125 137.261719 141.972656 137.988281 C 142.117188 138.714844 142.222656 139.449219 142.296875 140.1875 C 142.371094 140.925781 142.40625 141.664062 142.40625 142.40625 Z M 142.40625 142.40625 " fill-opacity="1" fill-rule="nonzero"/><path fill="rgb(100%, 98.81897%, 94.898987%)" d="M 278.25 142.40625 C 278.25 143.148438 278.214844 143.886719 278.140625 144.625 C 278.066406 145.363281 277.960938 146.097656 277.816406 146.824219 C 277.671875 147.550781 277.492188 148.269531 277.273438 148.976562 C 277.058594 149.6875 276.808594 150.386719 276.527344 151.070312 C 276.242188 151.753906 275.925781 152.425781 275.578125 153.078125 C 275.226562 153.734375 274.847656 154.367188 274.433594 154.984375 C 274.023438 155.601562 273.582031 156.195312 273.109375 156.769531 C 272.640625 157.34375 272.144531 157.890625 271.617188 158.414062 C 271.09375 158.941406 270.546875 159.4375 269.972656 159.90625 C 269.398438 160.378906 268.804688 160.820312 268.1875 161.230469 C 267.570312 161.644531 266.9375 162.023438 266.28125 162.375 C 265.628906 162.722656 264.957031 163.039062 264.273438 163.324219 C 263.589844 163.605469 262.890625 163.855469 262.179688 164.070312 C 261.472656 164.289062 260.753906 164.46875 260.027344 164.613281 C 259.300781 164.757812 258.566406 164.863281 257.828125 164.9375 C 257.089844 165.011719 256.351562 165.046875 255.609375 165.046875 C 254.867188 165.046875 254.128906 165.011719 253.390625 164.9375 C 252.652344 164.863281 251.917969 164.757812 251.191406 164.613281 C 250.464844 164.46875 249.746094 164.289062 249.039062 164.070312 C 248.328125 163.855469 247.628906 163.605469 246.945312 163.324219 C 246.261719 163.039062 245.589844 162.722656 244.9375 162.375 C 244.28125 162.023438 243.648438 161.644531 243.03125 161.230469 C 242.414062 160.820312 241.820312 160.378906 241.246094 159.90625 C 240.671875 159.4375 240.125 158.941406 239.601562 158.414062 C 239.074219 157.890625 238.578125 157.34375 238.109375 156.769531 C 237.636719 156.195312 237.195312 155.601562 236.785156 154.984375 C 236.371094 154.367188 235.992188 153.734375 235.640625 153.078125 C 235.292969 152.425781 234.976562 151.753906 234.691406 151.070312 C 234.410156 150.386719 234.160156 149.6875 233.945312 148.976562 C 233.726562 148.269531 233.546875 147.550781 233.402344 146.824219 C 233.257812 146.097656 233.152344 145.363281 233.078125 144.625 C 233.003906 143.886719 232.96875 143.148438 232.96875 142.40625 C 232.96875 141.664062 233.003906 140.925781 233.078125 140.1875 C 233.152344 139.449219 233.257812 138.714844 233.402344 137.988281 C 233.546875 137.261719 233.726562 136.542969 233.945312 135.835938 C 234.160156 135.125 234.410156 134.425781 234.691406 133.742188 C 234.976562 133.058594 235.292969 132.386719 235.640625 131.734375 C 235.992188 131.078125 236.371094 130.445312 236.785156 129.828125 C 237.195312 129.210938 237.636719 128.617188 238.109375 128.042969 C 238.578125 127.46875 239.074219 126.921875 239.601562 126.398438 C 240.125 125.871094 240.671875 125.375 241.246094 124.90625 C 241.820312 124.433594 242.414062 123.992188 243.03125 123.582031 C 243.648438 123.167969 244.28125 122.789062 244.9375 122.4375 C 245.589844 122.089844 246.261719 121.773438 246.945312 121.488281 C 247.628906 121.207031 248.328125 120.957031 249.039062 120.742188 C 249.746094 120.523438 250.464844 120.34375 251.191406 120.199219 C 251.917969 120.054688 252.652344 119.949219 253.390625 119.875 C 254.128906 119.800781 254.867188 119.765625 255.609375 119.765625 C 256.351562 119.765625 257.089844 119.800781 257.828125 119.875 C 258.566406 119.949219 259.300781 120.054688 260.027344 120.199219 C 260.753906 120.34375 261.472656 120.523438 262.179688 120.742188 C 262.890625 120.957031 263.589844 121.207031 264.273438 121.488281 C 264.957031 121.773438 265.628906 122.089844 266.28125 122.4375 C 266.9375 122.789062 267.570312 123.167969 268.1875 123.582031 C 268.804688 123.992188 269.398438 124.433594 269.972656 124.90625 C 270.546875 125.375 271.09375 125.871094 271.617188 126.398438 C 272.144531 126.921875 272.640625 127.46875 273.109375 128.042969 C 273.582031 128.617188 274.023438 129.210938 274.433594 129.828125 C 274.847656 130.445312 275.226562 131.078125 275.578125 131.734375 C 275.925781 132.386719 276.242188 133.058594 276.527344 133.742188 C 276.808594 134.425781 277.058594 135.125 277.273438 135.835938 C 277.492188 136.542969 277.671875 137.261719 277.816406 137.988281 C 277.960938 138.714844 278.066406 139.449219 278.140625 140.1875 C 278.214844 140.925781 278.25 141.664062 278.25 142.40625 Z M 278.25 142.40625 " fill-opacity="1" fill-rule="nonzero"/><path fill="rgb(25.099182%, 23.919678%, 22.349548%)" d="M 187.6875 300.890625 C 181.4375 300.890625 176.367188 295.820312 176.367188 289.570312 C 176.367188 283.320312 181.4375 278.25 187.6875 278.25 C 212.027344 278.25 234.734375 268.832031 251.625 251.714844 C 256.015625 247.300781 263.171875 247.230469 267.632812 251.625 C 272.070312 255.996094 272.113281 263.171875 267.722656 267.632812 C 246.574219 289.09375 218.140625 300.890625 187.6875 300.890625 Z M 187.6875 300.890625 " fill-opacity="1" fill-rule="nonzero"/></svg>